<svg xmlns="http://www.w3.org/2000/svg" xmlns:xlink="http://www.w3.org/1999/xlink" width="940" zoomAndPan="magnify" viewBox="0 0 705 591.000005" height="788" preserveAspectRatio="xMidYMid meet" version="1.0"><defs><clipPath id="7a9e40992c"><path d="M 138.402344 72 L 566.675781 72 L 566.675781 518.226562 L 138.402344 518.226562 Z M 138.402344 72 " clip-rule="nonzero"/></clipPath></defs><path fill="#b6b513" d="M 265.136719 281.992188 L 313.207031 281.992188 C 318.035156 281.992188 321.949219 278.078125 321.949219 273.246094 C 321.949219 268.417969 318.035156 264.503906 313.207031 264.503906 L 265.136719 264.503906 C 260.308594 264.503906 256.398438 268.417969 256.398438 273.246094 C 256.398438 278.078125 260.308594 281.992188 265.136719 281.992188 Z M 265.136719 281.992188 " fill-opacity="1" fill-rule="nonzero"/><path fill="#b6b513" d="M 238.914062 273.246094 C 238.914062 268.417969 235.003906 264.503906 230.175781 264.503906 L 182.105469 264.503906 C 177.277344 264.503906 173.363281 268.417969 173.363281 273.246094 C 173.363281 278.078125 177.277344 281.992188 182.105469 281.992188 L 230.175781 281.992188 C 235.003906 281.992188 238.914062 278.078125 238.914062 273.246094 Z M 238.914062 273.246094 " fill-opacity="1" fill-rule="nonzero"/><g clip-path="url(#7a9e40992c)"><path fill="#b6b513" d="M 566.675781 159.59375 C 566.675781 111.382812 527.46875 72.164062 479.273438 72.164062 C 474.382812 72.164062 268.796875 72.164062 260.765625 72.164062 C 241.488281 72.164062 225.804688 87.851562 225.804688 107.136719 L 225.804688 194.5625 L 147.144531 194.5625 C 142.316406 194.5625 138.402344 198.476562 138.402344 203.304688 L 138.402344 308.21875 C 138.402344 313.046875 142.316406 316.960938 147.144531 316.960938 L 225.804688 316.960938 L 225.804688 483.074219 C 225.804688 502.359375 241.488281 518.046875 260.765625 518.046875 L 461.792969 518.046875 C 481.070312 518.046875 496.753906 502.359375 496.753906 483.074219 L 496.753906 245.261719 C 536.601562 237.140625 566.675781 201.8125 566.675781 159.59375 Z M 260.765625 89.648438 L 426.890625 89.648438 C 410.09375 102.269531 397.972656 120.789062 393.628906 142.105469 L 243.285156 142.105469 L 243.285156 107.136719 C 243.285156 97.492188 251.128906 89.648438 260.765625 89.648438 Z M 339.429688 212.046875 L 339.429688 229.535156 L 155.882812 229.535156 L 155.882812 212.046875 Z M 155.882812 247.019531 L 339.429688 247.019531 L 339.429688 299.476562 L 155.882812 299.476562 Z M 461.792969 500.558594 L 260.765625 500.558594 C 251.128906 500.558594 243.285156 492.714844 243.285156 483.074219 L 243.285156 448.101562 L 479.273438 448.101562 L 479.273438 483.074219 C 479.273438 492.714844 471.433594 500.558594 461.792969 500.558594 Z M 479.273438 430.617188 L 243.285156 430.617188 L 243.285156 316.960938 L 348.167969 316.960938 C 352.996094 316.960938 356.910156 313.046875 356.910156 308.21875 L 356.910156 203.304688 C 356.910156 198.476562 352.996094 194.5625 348.167969 194.5625 L 243.285156 194.5625 L 243.285156 159.59375 L 391.871094 159.59375 C 391.871094 207.800781 431.078125 247.019531 479.273438 247.019531 Z M 479.273438 229.535156 C 440.71875 229.535156 409.351562 198.15625 409.351562 159.59375 C 409.351562 121.027344 440.71875 89.648438 479.273438 89.648438 C 517.828125 89.648438 549.195312 121.027344 549.195312 159.59375 C 549.195312 198.15625 517.828125 229.535156 479.273438 229.535156 Z M 479.273438 229.535156 " fill-opacity="1" fill-rule="nonzero"/></g><path fill="#b6b513" d="M 505.871094 130.460938 L 466.164062 170.175781 L 452.679688 156.6875 C 449.265625 153.273438 443.730469 153.273438 440.316406 156.6875 C 436.902344 160.101562 436.902344 165.636719 440.316406 169.050781 L 459.984375 188.722656 C 463.398438 192.140625 468.929688 192.136719 472.34375 188.722656 L 518.230469 142.824219 C 521.644531 139.410156 521.644531 133.875 518.230469 130.460938 C 514.816406 127.046875 509.285156 127.046875 505.871094 130.460938 Z M 505.871094 130.460938 " fill-opacity="1" fill-rule="nonzero"/><path fill="#b6b513" d="M 383.132812 465.589844 L 339.429688 465.589844 C 334.601562 465.589844 330.6875 469.503906 330.6875 474.332031 C 330.6875 479.160156 334.601562 483.074219 339.429688 483.074219 L 383.132812 483.074219 C 387.957031 483.074219 391.871094 479.160156 391.871094 474.332031 C 391.871094 469.503906 387.957031 465.589844 383.132812 465.589844 Z M 383.132812 465.589844 " fill-opacity="1" fill-rule="nonzero"/><path fill="#b6b513" d="M 330.6875 124.621094 L 374.390625 124.621094 C 379.21875 124.621094 383.132812 120.707031 383.132812 115.878906 C 383.132812 111.050781 379.21875 107.136719 374.390625 107.136719 L 330.6875 107.136719 C 325.863281 107.136719 321.949219 111.050781 321.949219 115.878906 C 321.949219 120.707031 325.863281 124.621094 330.6875 124.621094 Z M 330.6875 124.621094 " fill-opacity="1" fill-rule="nonzero"/></svg>