<svg xmlns="http://www.w3.org/2000/svg" xmlns:xlink="http://www.w3.org/1999/xlink" width="940" zoomAndPan="magnify" viewBox="0 0 705 591.000005" height="788" preserveAspectRatio="xMidYMid meet" version="1.0"><defs><clipPath id="2d97966a97"><path d="M 267 250 L 541 250 L 541 527.121094 L 267 527.121094 Z M 267 250 " clip-rule="nonzero"/></clipPath><clipPath id="d811cd08c1"><path d="M 160.730469 62.90625 L 462 62.90625 L 462 180 L 160.730469 180 Z M 160.730469 62.90625 " clip-rule="nonzero"/></clipPath><clipPath id="a9a16b7f81"><path d="M 160.730469 113 L 318 113 L 318 254 L 160.730469 254 Z M 160.730469 113 " clip-rule="nonzero"/></clipPath><clipPath id="d4b121ba86"><path d="M 160.730469 216 L 268 216 L 268 308 L 160.730469 308 Z M 160.730469 216 " clip-rule="nonzero"/></clipPath><clipPath id="169236a5c8"><path d="M 160.730469 245 L 253 245 L 253 380 L 160.730469 380 Z M 160.730469 245 " clip-rule="nonzero"/></clipPath><clipPath id="e2cfc4b2e3"><path d="M 160.730469 347 L 272 347 L 272 440 L 160.730469 440 Z M 160.730469 347 " clip-rule="nonzero"/></clipPath><clipPath id="cbacc42522"><path d="M 160.730469 376 L 434 376 L 434 517 L 160.730469 517 Z M 160.730469 376 " clip-rule="nonzero"/></clipPath></defs><path fill="#1c3cc4" d="M 378.507812 297.496094 C 361.355469 297.496094 345.230469 304.179688 333.101562 316.3125 C 308.078125 341.355469 308.078125 382.101562 333.101562 407.144531 C 358.113281 432.183594 398.863281 432.210938 423.902344 407.144531 C 448.925781 382.101562 448.925781 341.355469 423.902344 316.3125 C 411.773438 304.179688 395.648438 297.496094 378.507812 297.496094 Z M 378.496094 441.164062 C 358.160156 441.164062 337.820312 433.417969 322.332031 417.925781 C 291.359375 386.941406 291.359375 336.515625 322.332031 305.535156 C 337.328125 290.523438 357.28125 282.253906 378.507812 282.253906 C 399.726562 282.253906 419.671875 290.523438 434.671875 305.535156 C 465.644531 336.515625 465.644531 386.941406 434.671875 417.925781 C 419.183594 433.417969 398.847656 441.164062 378.496094 441.164062 " fill-opacity="1" fill-rule="nonzero"/><g clip-path="url(#2d97966a97)"><path fill="#1c3cc4" d="M 431.609375 443.039062 C 433.570312 443.039062 435.519531 443.808594 436.992188 445.273438 L 499.019531 507.324219 C 504.910156 513.234375 515.214844 513.234375 521.136719 507.324219 C 527.238281 501.21875 527.238281 491.292969 521.136719 485.1875 L 459.859375 423.875 C 457.300781 421.328125 456.894531 417.328125 458.875 414.316406 C 483.648438 376.5 478.394531 325.816406 446.410156 293.792969 C 408.949219 256.316406 348.023438 256.347656 310.59375 293.792969 C 273.164062 331.246094 273.164062 392.210938 310.59375 429.667969 C 341.71875 460.820312 389.890625 466.773438 427.695312 444.117188 C 428.917969 443.398438 430.269531 443.039062 431.609375 443.039062 Z M 510.070312 527.148438 C 501.828125 527.148438 494.078125 523.933594 488.246094 518.097656 L 430.300781 460.136719 C 387.332031 482.84375 334.472656 475.117188 299.824219 440.445312 C 256.457031 397.039062 256.457031 326.417969 299.824219 283.015625 C 343.191406 239.617188 413.785156 239.585938 457.183594 283.015625 C 492.765625 318.640625 499.789062 374.199219 474.886719 417.355469 L 531.910156 474.414062 C 543.949219 486.453125 543.949219 506.058594 531.910156 518.097656 C 526.074219 523.933594 518.308594 527.148438 510.070312 527.148438 " fill-opacity="1" fill-rule="nonzero"/></g><g clip-path="url(#d811cd08c1)"><path fill="#1c3cc4" d="M 311.113281 78.160156 C 231.566406 78.160156 176.132812 100.898438 176.132812 121.296875 C 176.132812 141.660156 233.855469 164.433594 311.113281 164.433594 C 388.371094 164.433594 446.097656 141.660156 446.097656 121.296875 C 446.097656 100.898438 390.664062 78.160156 311.113281 78.160156 Z M 311.113281 179.675781 C 238.289062 179.675781 160.898438 159.21875 160.898438 121.296875 C 160.898438 83.378906 238.289062 62.917969 311.113281 62.917969 C 383.9375 62.917969 461.332031 83.378906 461.332031 121.296875 C 461.332031 159.21875 383.9375 179.675781 311.113281 179.675781 " fill-opacity="1" fill-rule="nonzero"/></g><g clip-path="url(#a9a16b7f81)"><path fill="#1c3cc4" d="M 310.355469 253.898438 C 274.277344 253.898438 239.628906 249.050781 212.777344 240.261719 C 204.265625 237.578125 196.484375 234.359375 189.746094 230.738281 C 165.925781 218.480469 160.898438 204.816406 160.898438 195.527344 L 160.898438 121.296875 C 160.898438 117.082031 164.304688 113.675781 168.515625 113.675781 C 172.726562 113.675781 176.132812 117.082031 176.132812 121.296875 L 176.132812 195.527344 C 176.132812 202.664062 183.484375 210.375 196.84375 217.242188 C 202.867188 220.492188 209.753906 223.332031 217.433594 225.75 C 242.871094 234.085938 275.839844 238.65625 310.355469 238.65625 C 314.566406 238.65625 317.972656 242.066406 317.972656 246.277344 C 317.972656 250.492188 314.566406 253.898438 310.355469 253.898438 " fill-opacity="1" fill-rule="nonzero"/></g><path fill="#1c3cc4" d="M 411.0625 239.269531 C 407.890625 239.269531 404.929688 237.273438 403.84375 234.109375 C 402.496094 230.117188 404.621094 225.789062 408.605469 224.433594 C 414.929688 222.277344 420.597656 219.875 425.460938 217.289062 C 438.597656 210.464844 446.097656 202.539062 446.097656 195.527344 L 446.097656 121.296875 C 446.097656 117.082031 449.503906 113.675781 453.714844 113.675781 C 457.925781 113.675781 461.332031 117.082031 461.332031 121.296875 L 461.332031 195.527344 C 461.332031 204.789062 456.335938 218.421875 432.542969 230.789062 C 427.023438 233.714844 420.613281 236.441406 413.515625 238.859375 C 412.714844 239.136719 411.878906 239.269531 411.0625 239.269531 " fill-opacity="1" fill-rule="nonzero"/><g clip-path="url(#d4b121ba86)"><path fill="#1c3cc4" d="M 259.640625 307.402344 C 259.296875 307.402344 258.957031 307.378906 258.613281 307.335938 C 198.34375 299.234375 160.898438 278.292969 160.898438 252.683594 C 160.898438 239.347656 170.628906 227.441406 189.804688 217.289062 C 193.492188 215.328125 198.121094 216.730469 200.101562 220.460938 C 202.0625 224.183594 200.636719 228.796875 196.914062 230.761719 C 183.511719 237.859375 176.132812 245.644531 176.132812 252.683594 C 176.132812 266.695312 205.15625 284.769531 260.636719 292.226562 C 264.800781 292.785156 267.734375 296.628906 267.167969 300.792969 C 266.664062 304.628906 263.386719 307.402344 259.640625 307.402344 " fill-opacity="1" fill-rule="nonzero"/></g><path fill="#1c3cc4" d="M 453.550781 258.320312 C 449.667969 258.320312 446.351562 255.359375 445.976562 251.40625 C 445.355469 244.730469 438.078125 237.398438 425.496094 230.769531 C 421.757812 228.808594 420.328125 224.203125 422.292969 220.472656 C 424.273438 216.746094 428.886719 215.328125 432.574219 217.28125 C 450.398438 226.65625 460.007812 237.65625 461.152344 249.992188 C 461.539062 254.183594 458.460938 257.894531 454.265625 258.292969 C 454.027344 258.3125 453.789062 258.320312 453.550781 258.320312 " fill-opacity="1" fill-rule="nonzero"/><g clip-path="url(#169236a5c8)"><path fill="#1c3cc4" d="M 245.015625 379.496094 C 244.554688 379.496094 244.09375 379.460938 243.617188 379.371094 C 222.042969 375.402344 203.417969 369.441406 189.761719 362.132812 C 165.925781 349.871094 160.898438 336.207031 160.898438 326.910156 L 160.898438 252.683594 C 160.898438 248.472656 164.304688 245.0625 168.515625 245.0625 C 172.726562 245.0625 176.132812 248.472656 176.132812 252.683594 L 176.132812 326.910156 C 176.132812 334.046875 183.484375 341.765625 196.84375 348.632812 C 209.234375 355.273438 226.328125 360.691406 246.382812 364.382812 C 250.519531 365.140625 253.257812 369.113281 252.5 373.253906 C 251.8125 376.929688 248.613281 379.496094 245.015625 379.496094 " fill-opacity="1" fill-rule="nonzero"/></g><g clip-path="url(#e2cfc4b2e3)"><path fill="#1c3cc4" d="M 264.355469 439.402344 C 264.042969 439.402344 263.746094 439.386719 263.433594 439.347656 C 213.863281 433.382812 160.898438 415.683594 160.898438 383.921875 C 160.898438 374.691406 165.925781 361.078125 189.847656 348.648438 C 193.539062 346.714844 198.164062 348.148438 200.113281 351.902344 C 202.0625 355.640625 200.605469 360.238281 196.871094 362.179688 C 183.496094 369.125 176.132812 376.847656 176.132812 383.921875 C 176.132812 398.25 207.359375 417.246094 265.25 424.210938 C 269.429688 424.71875 272.40625 428.511719 271.898438 432.691406 C 271.4375 436.558594 268.148438 439.402344 264.355469 439.402344 " fill-opacity="1" fill-rule="nonzero"/></g><g clip-path="url(#cbacc42522)"><path fill="#1c3cc4" d="M 311.113281 516.675781 C 238.289062 516.675781 160.898438 496.214844 160.898438 458.300781 L 160.898438 383.921875 C 160.898438 379.707031 164.304688 376.296875 168.515625 376.296875 C 172.726562 376.296875 176.132812 379.707031 176.132812 383.921875 L 176.132812 458.300781 C 176.132812 478.660156 233.855469 501.4375 311.113281 501.4375 C 355.152344 501.4375 396.914062 493.972656 422.832031 481.464844 C 426.5625 479.675781 431.175781 481.222656 432.992188 485.015625 C 434.820312 488.804688 433.230469 493.367188 429.4375 495.1875 C 401.152344 508.847656 358.023438 516.675781 311.113281 516.675781 " fill-opacity="1" fill-rule="nonzero"/></g><path fill="#1c3cc4" d="M 277.773438 280.878906 C 277.550781 280.878906 277.328125 280.867188 277.089844 280.847656 C 245.355469 278.070312 207.523438 270.925781 207.523438 252.683594 L 207.523438 233.023438 C 207.523438 228.808594 210.929688 225.402344 215.140625 225.402344 C 219.351562 225.402344 222.757812 228.808594 222.757812 233.023438 L 222.757812 252.683594 C 224.441406 254.832031 240.582031 262.355469 278.429688 265.664062 C 282.609375 266.03125 285.71875 269.726562 285.347656 273.917969 C 285.003906 277.886719 281.671875 280.878906 277.773438 280.878906 " fill-opacity="1" fill-rule="nonzero"/><path fill="#1c3cc4" d="M 250.042969 407.394531 C 249.550781 407.394531 249.078125 407.347656 248.585938 407.25 C 220.957031 401.921875 207.523438 393.945312 207.523438 382.84375 L 207.523438 368.371094 C 207.523438 364.160156 210.929688 360.75 215.140625 360.75 C 219.351562 360.75 222.757812 364.160156 222.757812 368.371094 L 222.757812 382.84375 C 223.457031 383.390625 230.433594 388.230469 251.472656 392.289062 C 255.609375 393.085938 258.300781 397.085938 257.511719 401.214844 C 256.8125 404.863281 253.613281 407.394531 250.042969 407.394531 " fill-opacity="1" fill-rule="nonzero"/></svg>