<svg xmlns="http://www.w3.org/2000/svg" xmlns:xlink="http://www.w3.org/1999/xlink" width="940" zoomAndPan="magnify" viewBox="0 0 705 591.000005" height="788" preserveAspectRatio="xMidYMid meet" version="1.0"><defs><clipPath id="c5b8a20224"><path d="M 106.792969 4.652344 L 597.960938 4.652344 L 597.960938 585.667969 L 106.792969 585.667969 Z M 106.792969 4.652344 " clip-rule="nonzero"/></clipPath></defs><g clip-path="url(#c5b8a20224)"><path fill="#f17104" d="M 307.816406 408.421875 C 307.816406 398.570312 299.839844 390.582031 289.996094 390.582031 C 280.15625 390.582031 272.175781 398.570312 272.175781 408.421875 C 272.175781 418.277344 280.15625 426.261719 289.996094 426.261719 C 299.839844 426.261719 307.816406 418.277344 307.816406 408.421875 Z M 254.730469 408.421875 C 254.730469 398.570312 246.753906 390.582031 236.910156 390.582031 C 227.066406 390.582031 219.089844 398.570312 219.089844 408.421875 C 219.089844 418.277344 227.066406 426.261719 236.910156 426.261719 C 246.753906 426.261719 254.730469 418.277344 254.730469 408.421875 Z M 201.644531 408.421875 C 201.644531 398.570312 193.667969 390.582031 183.824219 390.582031 C 173.980469 390.582031 166.003906 398.570312 166.003906 408.421875 C 166.003906 418.277344 173.980469 426.261719 183.824219 426.261719 C 193.667969 426.261719 201.644531 418.277344 201.644531 408.421875 Z M 236.910156 284.976562 C 273.351562 284.976562 301.976562 295.609375 319.691406 315.726562 C 329.140625 326.460938 325.40625 337.601562 319.335938 343.878906 C 311.070312 352.4375 295.894531 355.417969 280.613281 342.804688 C 261.335938 326.894531 245.917969 307.171875 234.988281 284.988281 C 235.628906 284.976562 236.269531 284.976562 236.910156 284.976562 Z M 313.828125 584.96875 C 316.042969 583.957031 317.503906 581.789062 317.621094 579.355469 L 321.210938 501.460938 C 341.054688 484.566406 355.207031 462.5 362.21875 437.464844 C 363.1875 434.007812 361.175781 430.421875 357.722656 429.457031 C 354.28125 428.484375 350.691406 430.5 349.722656 433.957031 C 343.175781 457.332031 329.703125 477.839844 310.765625 493.257812 C 309.332031 494.425781 308.464844 496.152344 308.375 498 L 305.238281 566.09375 L 247.972656 520.707031 C 246.726562 519.722656 245.164062 519.226562 243.582031 519.316406 C 241.160156 519.453125 238.980469 519.519531 236.910156 519.519531 C 172.316406 519.519531 119.765625 466.910156 119.765625 402.246094 C 119.765625 342.949219 163.957031 293.785156 221.105469 286.035156 C 232.929688 311.757812 250.285156 334.613281 272.359375 352.832031 C 293.910156 370.617188 316.652344 365.34375 328.664062 352.914062 C 341.316406 339.820312 341.632812 321 329.425781 307.140625 C 315.304688 291.101562 287.792969 271.984375 236.910156 271.984375 C 234.355469 271.984375 231.8125 272.058594 229.292969 272.207031 C 220.621094 250.515625 216.023438 226.882812 216.023438 202.441406 C 216.023438 100.605469 298.785156 17.757812 400.507812 17.757812 C 502.230469 17.757812 584.988281 100.605469 584.988281 202.441406 C 584.988281 258.25 560.136719 310.488281 516.8125 345.765625 C 515.378906 346.929688 514.515625 348.65625 514.425781 350.503906 L 509.257812 462.582031 L 415.398438 388.195312 C 412.589844 385.964844 408.511719 386.445312 406.285156 389.253906 C 404.0625 392.070312 404.53125 396.152344 407.34375 398.382812 L 511.128906 480.632812 C 513.039062 482.144531 515.632812 482.464844 517.847656 481.453125 C 520.0625 480.441406 521.527344 478.277344 521.640625 475.84375 L 527.261719 353.976562 C 572.238281 316.265625 597.96875 261.199219 597.96875 202.441406 C 597.96875 93.441406 509.386719 4.765625 400.507812 4.765625 C 291.625 4.765625 203.046875 93.441406 203.046875 202.441406 C 203.046875 227.308594 207.503906 251.402344 215.933594 273.679688 C 154.117188 283.746094 106.789062 337.566406 106.789062 402.246094 C 106.789062 474.074219 165.160156 532.507812 236.910156 532.507812 C 238.484375 532.507812 240.109375 532.472656 241.828125 532.410156 L 307.109375 584.148438 C 308.277344 585.074219 309.703125 585.554688 311.140625 585.554688 C 312.050781 585.554688 312.96875 585.355469 313.828125 584.96875 Z M 483.992188 195.925781 C 483.992188 184.773438 474.960938 175.734375 463.820312 175.734375 C 452.6875 175.734375 443.660156 184.773438 443.660156 195.925781 C 443.660156 207.078125 452.6875 216.109375 463.820312 216.109375 C 474.960938 216.109375 483.992188 207.078125 483.992188 195.925781 Z M 423.917969 195.925781 C 423.917969 184.773438 414.890625 175.734375 403.75 175.734375 C 392.613281 175.734375 383.582031 184.773438 383.582031 195.925781 C 383.582031 207.078125 392.613281 216.109375 403.75 216.109375 C 414.890625 216.109375 423.917969 207.078125 423.917969 195.925781 Z M 343.675781 216.109375 C 332.539062 216.109375 323.507812 207.078125 323.507812 195.925781 C 323.507812 184.773438 332.539062 175.734375 343.675781 175.734375 C 354.8125 175.734375 363.84375 184.773438 363.84375 195.925781 C 363.84375 207.078125 354.8125 216.109375 343.675781 216.109375 " fill-opacity="1" fill-rule="nonzero"/></g></svg>