<?xml version="1.0" encoding="UTF-8" standalone="no"?>
<!-- Created with Inkscape (http://www.inkscape.org/) -->

<svg
   version="1.1"
   id="svg2"
   width="145.33333"
   height="149.33333"
   viewBox="0 0 145.33333 149.33333"
   sodipodi:docname="logo_djezzy_play.ai"
   xmlns:inkscape="http://www.inkscape.org/namespaces/inkscape"
   xmlns:sodipodi="http://sodipodi.sourceforge.net/DTD/sodipodi-0.dtd"
   xmlns="http://www.w3.org/2000/svg"
   xmlns:svg="http://www.w3.org/2000/svg">
  <defs
     id="defs6">
    <clipPath
       clipPathUnits="userSpaceOnUse"
       id="clipPath16">
      <path
         d="M 0,112 H 109 V 0 H 0 Z"
         id="path14" />
    </clipPath>
  </defs>
  <sodipodi:namedview
     id="namedview4"
     pagecolor="#ffffff"
     bordercolor="#000000"
     borderopacity="0.25"
     inkscape:showpageshadow="2"
     inkscape:pageopacity="0.0"
     inkscape:pagecheckerboard="0"
     inkscape:deskcolor="#d1d1d1" />
  <g
     id="g8"
     inkscape:groupmode="layer"
     inkscape:label="logo_djezzy_play"
     transform="matrix(1.3333333,0,0,-1.3333333,0,149.33333)">
    <g
       id="g10">
      <g
         id="g12"
         clip-path="url(#clipPath16)">
        <g
           id="g18"
           transform="translate(14.1968,3.7139)">
          <path
             d="M 0,0 C -0.994,0 -1.984,0.257 -2.875,0.767 -4.65,1.792 -5.746,3.69 -5.746,5.747 v 93.077 c 0,2.051 1.096,3.951 2.871,4.974 0.891,0.513 1.881,0.774 2.875,0.774 0.993,0 1.982,-0.261 2.869,-0.774 L 83.476,57.262 c 1.779,-1.026 2.876,-2.922 2.876,-4.978 0,-2.055 -1.097,-3.95 -2.876,-4.973 L 2.869,0.767 C 1.982,0.257 0.993,0 0,0"
             style="fill:#e20613;fill-opacity:1;fill-rule:nonzero;stroke:none"
             id="path20" />
        </g>
        <g
           id="g22"
           transform="translate(18.2876,50.5205)">
          <path
             d="m 0,0 v 10.157 h 2.264 c 2.664,0 4.054,-1.31 4.054,-4.053 V 4.374 C 6.318,1.541 5.119,0 2.435,0 Z m -2.456,-2.058 h 4.891 c 4.511,0 6.394,2.589 6.394,6.298 v 1.982 c 0,3.782 -2.132,5.992 -6.565,5.992 h -4.72 z"
             style="fill:#ffffff;fill-opacity:1;fill-rule:nonzero;stroke:none"
             id="path24" />
        </g>
        <g
           id="g26"
           transform="translate(28.8438,48.4629)">
          <path
             d="m 0,0 h 2.04 c 2.796,0 4.433,1.636 4.433,4.399 v 9.872 H 0.593 V 12.217 H 4.037 V 4.399 C 4.037,2.871 3.333,2.058 1.924,2.058 H 0 Z"
             style="fill:#ffffff;fill-opacity:1;fill-rule:nonzero;stroke:none"
             id="path28" />
        </g>
        <g
           id="g30"
           transform="translate(42.354,48.4629)">
          <path
             d="m 0,0 h 4.947 v 2.058 h -4.49 c -1.2,0 -1.728,0.585 -1.728,1.963 v 2.351 h 5.498 v 2.079 h -5.498 v 3.766 h 6.104 v 2.054 H -3.731 V 3.861 C -3.731,1.313 -2.472,0 0,0"
             style="fill:#ffffff;fill-opacity:1;fill-rule:nonzero;stroke:none"
             id="path32" />
        </g>
        <g
           id="g34"
           transform="translate(49.3003,48.4629)">
          <path
             d="M 0,0 H 10.215 V 2.058 H 3.384 c 1.946,2.565 5.575,8.293 6.737,11.069 v 1.144 h -9.8 V 12.217 H 6.963 C 5.78,9.381 2.013,3.827 0,1.256 Z"
             style="fill:#ffffff;fill-opacity:1;fill-rule:nonzero;stroke:none"
             id="path36" />
        </g>
        <g
           id="g38"
           transform="translate(61.0938,48.4629)">
          <path
             d="m 0,0 h 10.219 v 2.058 h -6.83 c 1.937,2.565 5.574,8.293 6.733,11.069 v 1.144 H 0.326 V 12.217 H 6.962 C 5.782,9.381 2.017,3.827 0,1.256 Z"
             style="fill:#ffffff;fill-opacity:1;fill-rule:nonzero;stroke:none"
             id="path40" />
        </g>
        <g
           id="g42"
           transform="translate(76.9824,48.4629)">
          <path
             d="m 0,0 h 2.431 v 5.692 l 4.665,8.427 v 0.152 H 4.737 L 1.312,7.727 -2.038,14.271 H -4.565 V 14.119 L 0,5.611 Z"
             style="fill:#ffffff;fill-opacity:1;fill-rule:nonzero;stroke:none"
             id="path44" />
        </g>
        <path
           d="m 20.512,29.375 h -1.675 v 1.686 h 1.675 z"
           style="fill:#ffffff;fill-opacity:1;fill-rule:nonzero;stroke:none"
           id="path46" />
        <path
           d="M 23.379,29.375 H 21.71 v 1.686 h 1.669 z"
           style="fill:#ffffff;fill-opacity:1;fill-rule:nonzero;stroke:none"
           id="path48" />
        <path
           d="m 31.353,40.771 h -1.674 v 1.687 h 1.674 z m 0.013,-1.397 v -3.186 c 0,-2.734 -1.203,-3.873 -3.814,-3.873 v 1.458 c 1.418,0 2.115,0.698 2.115,2.155 v 3.446 z"
           style="fill:#ffffff;fill-opacity:1;fill-rule:nonzero;stroke:none"
           id="path50" />
        <g
           id="g52"
           transform="translate(37.4102,34.8379)">
          <path
             d="m 0,0 h -1.989 c -0.82,0 -1.445,0.258 -1.883,0.786 -0.412,0.487 -0.606,1.14 -0.606,1.977 v 4.674 h 1.687 V 3.443 c 0,-0.743 0.163,-1.231 0.484,-1.455 0.228,-0.169 0.663,-0.257 1.304,-0.257 l 1.003,0 z"
             style="fill:#ffffff;fill-opacity:1;fill-rule:nonzero;stroke:none"
             id="path54" />
        </g>
        <path
           d="m 43.209,31.913 h -1.67 v 1.702 h 1.67 z m 4.27,3.985 v -1.06 H 36.784 v 1.731 h 8.859 c 0,0.94 -0.262,1.744 -0.794,2.413 -0.624,0.771 -1.501,1.152 -2.613,1.152 -0.376,0 -0.799,-0.09 -1.271,-0.285 -0.547,-0.23 -1.003,-0.549 -1.369,-0.961 -0.165,0.321 -0.44,0.76 -0.823,1.341 0.474,0.437 1.006,0.8 1.63,1.074 0.663,0.29 1.337,0.426 2.004,0.426 1.123,0 2.092,-0.274 2.918,-0.833 1.439,-0.958 2.154,-2.615 2.154,-4.998"
           style="fill:#ffffff;fill-opacity:1;fill-rule:nonzero;stroke:none"
           id="path56" />
        <g
           id="g58"
           transform="translate(26.2573,36.0977)">
          <path
             d="m 0,0 v 1.621 h -3.749 c 0.29,0.683 0.712,1.169 1.248,1.428 0.437,0.218 1.076,0.323 1.91,0.323 v 1.574 c -3.266,0 -5.118,-1.758 -5.118,-4.98 H -1.7 0 Z"
             style="fill:#ffffff;fill-opacity:1;fill-rule:nonzero;stroke:none"
             id="path60" />
        </g>
        <g
           id="g62"
           transform="translate(24.7651,37.7188)">
          <path
             d="m 0,0 c -0.184,-2.357 -1.417,-3.776 -3.616,-3.776 -1.139,0 -2.038,0.343 -2.661,1.06 -0.606,0.665 -0.907,1.567 -0.907,2.688 v 1.5 H -8.89 V -0.21 c 0,-1.475 0.503,-2.721 1.505,-3.705 1.007,-0.984 2.252,-1.488 3.722,-1.488 h 0.106 c 1.473,0 2.704,0.504 3.704,1.488 0.658,0.636 1.099,1.377 1.327,2.222 0.092,0.323 0.255,1.045 0.256,1.706 z"
             style="fill:#ffffff;fill-opacity:1;fill-rule:nonzero;stroke:none"
             id="path64" />
        </g>
      </g>
    </g>
  </g>
</svg>
