<?xml version="1.0" encoding="UTF-8"?>
<svg xmlns="http://www.w3.org/2000/svg" xmlns:xlink="http://www.w3.org/1999/xlink" width="108.999997pt" height="111.999997pt" viewBox="0 0 108.999997 111.999997" version="1.1">
<g id="surface1">
<path style=" stroke:none;fill-rule:nonzero;fill:rgb(88.627451%,2.352941%,7.45098%);fill-opacity:1;" d="M 14.195312 108.285156 C 13.203125 108.285156 12.210938 108.027344 11.320312 107.519531 C 9.546875 106.492188 8.449219 104.597656 8.449219 102.539062 L 8.449219 9.460938 C 8.449219 7.410156 9.546875 5.511719 11.320312 4.488281 C 12.210938 3.976562 13.203125 3.714844 14.195312 3.714844 C 15.1875 3.714844 16.175781 3.976562 17.0625 4.488281 L 97.671875 51.023438 C 99.449219 52.050781 100.546875 53.945312 100.546875 56 C 100.546875 58.054688 99.449219 59.949219 97.671875 60.972656 L 17.066406 107.519531 C 16.179688 108.027344 15.191406 108.285156 14.195312 108.285156 "/>
<path style=" stroke:none;fill-rule:nonzero;fill:rgb(100%,100%,100%);fill-opacity:1;" d="M 18.289062 61.480469 L 18.289062 51.324219 L 20.554688 51.324219 C 23.21875 51.324219 24.609375 52.632812 24.609375 55.378906 L 24.605469 57.105469 C 24.605469 59.9375 23.40625 61.480469 20.722656 61.480469 Z M 15.832031 63.539062 L 20.722656 63.539062 C 25.234375 63.539062 27.117188 60.949219 27.117188 57.242188 L 27.117188 55.261719 C 27.117188 51.480469 24.984375 49.269531 20.550781 49.269531 L 15.832031 49.269531 Z M 15.832031 63.539062 "/>
<path style=" stroke:none;fill-rule:nonzero;fill:rgb(100%,100%,100%);fill-opacity:1;" d="M 28.84375 63.535156 L 30.882812 63.535156 C 33.679688 63.535156 35.316406 61.898438 35.316406 59.136719 L 35.316406 49.265625 L 29.4375 49.265625 L 29.4375 51.320312 L 32.878906 51.320312 L 32.878906 59.136719 C 32.878906 60.667969 32.175781 61.480469 30.769531 61.480469 L 28.84375 61.480469 Z M 28.84375 63.535156 "/>
<path style=" stroke:none;fill-rule:nonzero;fill:rgb(100%,100%,100%);fill-opacity:1;" d="M 42.355469 63.535156 L 47.300781 63.535156 L 47.300781 61.476562 L 42.8125 61.476562 C 41.613281 61.476562 41.085938 60.890625 41.085938 59.511719 L 41.085938 57.160156 L 46.582031 57.160156 L 46.582031 55.082031 L 41.085938 55.082031 L 41.085938 51.316406 L 47.191406 51.316406 L 47.191406 49.261719 L 38.621094 49.265625 L 38.621094 59.675781 C 38.621094 62.222656 39.882812 63.535156 42.355469 63.535156 "/>
<path style=" stroke:none;fill-rule:nonzero;fill:rgb(100%,100%,100%);fill-opacity:1;" d="M 49.300781 63.535156 L 59.515625 63.535156 L 59.515625 61.480469 L 52.683594 61.480469 C 54.628906 58.914062 58.257812 53.1875 59.421875 50.410156 L 59.421875 49.265625 L 49.621094 49.265625 L 49.621094 51.320312 L 56.261719 51.320312 C 55.082031 54.15625 51.3125 59.710938 49.300781 62.28125 Z M 49.300781 63.535156 "/>
<path style=" stroke:none;fill-rule:nonzero;fill:rgb(100%,100%,100%);fill-opacity:1;" d="M 61.09375 63.535156 L 71.3125 63.535156 L 71.3125 61.476562 L 64.484375 61.476562 C 66.421875 58.910156 70.058594 53.183594 71.21875 50.40625 L 71.21875 49.261719 L 61.417969 49.265625 L 61.417969 51.320312 L 68.054688 51.320312 C 66.875 54.15625 63.109375 59.710938 61.09375 62.28125 Z M 61.09375 63.535156 "/>
<path style=" stroke:none;fill-rule:nonzero;fill:rgb(100%,100%,100%);fill-opacity:1;" d="M 76.980469 63.535156 L 79.410156 63.535156 L 79.410156 57.84375 L 84.074219 49.417969 L 84.074219 49.265625 L 81.71875 49.265625 L 78.292969 55.808594 L 74.945312 49.265625 L 72.417969 49.265625 L 72.417969 49.417969 L 76.980469 57.925781 Z M 76.980469 63.535156 "/>
<path style=" stroke:none;fill-rule:nonzero;fill:rgb(100%,100%,100%);fill-opacity:1;" d="M 20.511719 82.625 L 18.835938 82.625 L 18.835938 80.9375 L 20.511719 80.9375 Z M 20.511719 82.625 "/>
<path style=" stroke:none;fill-rule:nonzero;fill:rgb(100%,100%,100%);fill-opacity:1;" d="M 23.378906 82.625 L 21.710938 82.625 L 21.710938 80.9375 L 23.378906 80.9375 Z M 23.378906 82.625 "/>
<path style=" stroke:none;fill-rule:nonzero;fill:rgb(100%,100%,100%);fill-opacity:1;" d="M 31.351562 71.230469 L 29.675781 71.230469 L 29.675781 69.542969 L 31.351562 69.542969 Z M 31.363281 72.628906 L 31.363281 75.816406 C 31.363281 78.550781 30.160156 79.6875 27.550781 79.6875 L 27.550781 78.230469 C 28.96875 78.230469 29.664062 77.53125 29.664062 76.074219 L 29.664062 72.628906 Z M 31.363281 72.628906 "/>
<path style=" stroke:none;fill-rule:nonzero;fill:rgb(100%,100%,100%);fill-opacity:1;" d="M 37.410156 77.160156 L 35.421875 77.160156 C 34.601562 77.160156 33.976562 76.902344 33.539062 76.375 C 33.128906 75.886719 32.933594 75.234375 32.933594 74.398438 L 32.933594 69.722656 L 34.621094 69.722656 L 34.621094 73.71875 C 34.621094 74.460938 34.785156 74.949219 35.105469 75.171875 C 35.332031 75.339844 35.769531 75.429688 36.410156 75.429688 L 37.414062 75.429688 Z M 37.410156 77.160156 "/>
<path style=" stroke:none;fill-rule:nonzero;fill:rgb(100%,100%,100%);fill-opacity:1;" d="M 43.210938 80.085938 L 41.539062 80.085938 L 41.539062 78.382812 L 43.210938 78.382812 Z M 47.480469 76.101562 L 47.480469 77.160156 L 36.785156 77.160156 L 36.785156 75.429688 L 45.644531 75.429688 C 45.644531 74.488281 45.382812 73.6875 44.851562 73.015625 C 44.226562 72.246094 43.351562 71.863281 42.238281 71.863281 C 41.863281 71.863281 41.4375 71.953125 40.96875 72.148438 C 40.421875 72.378906 39.964844 72.699219 39.601562 73.109375 C 39.4375 72.789062 39.160156 72.347656 38.777344 71.769531 C 39.25 71.332031 39.785156 70.96875 40.40625 70.695312 C 41.070312 70.40625 41.742188 70.269531 42.410156 70.269531 C 43.53125 70.269531 44.503906 70.542969 45.328125 71.101562 C 46.765625 72.058594 47.480469 73.714844 47.480469 76.097656 "/>
<path style=" stroke:none;fill-rule:nonzero;fill:rgb(100%,100%,100%);fill-opacity:1;" d="M 26.257812 75.902344 L 26.257812 74.28125 L 22.507812 74.28125 C 22.796875 73.597656 23.21875 73.113281 23.753906 72.851562 C 24.191406 72.632812 24.828125 72.527344 25.664062 72.527344 L 25.664062 70.953125 C 22.398438 70.953125 20.546875 72.710938 20.546875 75.933594 L 24.558594 75.9375 L 26.257812 75.9375 Z M 26.257812 75.902344 "/>
<path style=" stroke:none;fill-rule:nonzero;fill:rgb(100%,100%,100%);fill-opacity:1;" d="M 24.765625 74.28125 C 24.582031 76.636719 23.347656 78.058594 21.148438 78.058594 C 20.007812 78.058594 19.109375 77.714844 18.488281 77 C 17.882812 76.335938 17.582031 75.433594 17.582031 74.3125 L 17.582031 72.8125 L 15.875 72.808594 L 15.875 74.492188 C 15.875 75.96875 16.378906 77.214844 17.378906 78.195312 C 18.386719 79.179688 19.632812 79.683594 21.101562 79.683594 L 21.207031 79.683594 C 22.679688 79.683594 23.910156 79.179688 24.910156 78.195312 C 25.566406 77.558594 26.007812 76.816406 26.238281 75.972656 C 26.332031 75.648438 26.492188 74.925781 26.496094 74.265625 Z M 24.765625 74.28125 "/>
</g>
</svg>
