<?xml version="1.0" encoding="UTF-8"?>
<svg xmlns="http://www.w3.org/2000/svg" xmlns:xlink="http://www.w3.org/1999/xlink" width="553.5pt" height="193.5pt" viewBox="0 0 553.5 193.5" version="1.1">
<g id="surface1">
<path style=" stroke:none;fill-rule:nonzero;fill:rgb(24.705882%,68.235294%,16.470588%);fill-opacity:1;" d="M 6 5.335938 L 549.417969 5.335938 L 549.417969 188.917969 L 6 188.917969 Z M 6 5.335938 "/>
<path style=" stroke:none;fill-rule:nonzero;fill:rgb(100%,100%,100%);fill-opacity:1;" d="M 484.910156 58.851562 C 487.605469 58.851562 489.730469 60.945312 489.730469 63.609375 C 489.730469 66.335938 487.605469 68.425781 484.878906 68.425781 C 482.15625 68.425781 480.003906 66.335938 480.003906 63.609375 C 480.003906 60.945312 482.15625 58.851562 484.878906 58.851562 Z M 484.851562 59.6875 C 482.699219 59.6875 481.054688 61.453125 481.054688 63.609375 C 481.054688 65.824219 482.699219 67.558594 484.910156 67.558594 C 487.066406 67.589844 488.652344 65.824219 488.652344 63.636719 C 488.652344 61.449219 487.0625 59.6875 484.878906 59.6875 Z M 484.015625 66.242188 L 483.085938 66.242188 L 483.085938 61.246094 C 483.59375 61.15625 484.132812 61.09375 484.820312 61.09375 C 485.660156 61.09375 486.078125 61.246094 486.410156 61.480469 C 486.707031 61.691406 486.921875 62.078125 486.921875 62.527344 C 486.921875 63.15625 486.46875 63.550781 485.933594 63.726562 L 485.933594 63.785156 C 486.382812 63.96875 486.621094 64.355469 486.769531 64.984375 C 486.921875 65.761719 487.011719 66.0625 487.128906 66.242188 L 486.167969 66.242188 C 486.019531 66.0625 485.898438 65.613281 485.78125 64.921875 C 485.664062 64.386719 485.332031 64.148438 484.613281 64.148438 L 484.015625 64.148438 Z M 484.015625 63.429688 L 484.644531 63.429688 C 485.332031 63.429688 485.933594 63.21875 485.933594 62.621094 C 485.933594 62.140625 485.632812 61.816406 484.734375 61.816406 C 484.371094 61.816406 484.164062 61.847656 484.015625 61.875 Z M 484.015625 63.429688 "/>
<path style=" stroke:none;fill-rule:nonzero;fill:rgb(100%,100%,100%);fill-opacity:1;" d="M 265.6875 111.992188 C 265.6875 119.363281 261.625 126.058594 255.089844 129.464844 C 239.894531 137.382812 217.84375 137.382812 202.65625 129.464844 C 196.109375 126.0625 192.050781 119.363281 192.050781 111.992188 L 192.050781 94.472656 C 192.050781 87.101562 196.113281 80.40625 202.652344 77 C 217.84375 69.085938 239.894531 69.085938 255.089844 77 C 261.628906 80.40625 265.6875 87.101562 265.6875 94.472656 Z M 206.003906 94.472656 L 206.003906 111.992188 C 206.003906 114.179688 207.160156 116.082031 209.097656 117.089844 C 220.1875 122.867188 237.558594 122.867188 248.640625 117.089844 C 250.582031 116.082031 251.734375 114.175781 251.734375 111.992188 L 251.734375 94.472656 C 251.734375 92.289062 250.578125 90.382812 248.640625 89.375 C 237.558594 83.597656 220.183594 83.597656 209.097656 89.375 C 207.160156 90.382812 206.003906 92.289062 206.003906 94.472656 Z M 206.003906 94.472656 "/>
<path style=" stroke:none;fill-rule:nonzero;fill:rgb(100%,100%,100%);fill-opacity:1;" d="M 289.714844 89.375 C 300.804688 83.597656 318.175781 83.597656 329.265625 89.375 C 331.207031 90.382812 332.359375 92.289062 332.359375 94.472656 L 332.359375 111.992188 C 332.359375 114.179688 331.207031 116.082031 329.265625 117.089844 C 318.175781 122.867188 300.808594 122.867188 289.714844 117.089844 C 287.777344 116.082031 286.617188 114.175781 286.617188 111.992188 L 286.617188 94.472656 C 286.617188 92.289062 287.777344 90.382812 289.714844 89.375 Z M 272.667969 111.992188 C 272.667969 119.363281 276.730469 126.058594 283.269531 129.464844 C 298.464844 137.382812 320.515625 137.382812 335.710938 129.464844 C 342.25 126.0625 346.308594 119.363281 346.308594 111.992188 L 346.308594 94.472656 C 346.308594 87.101562 342.246094 80.40625 335.710938 77 C 321.597656 69.644531 301.574219 69.132812 286.617188 75.4375 L 286.617188 59.726562 C 286.617188 59.484375 286.523438 59.269531 286.363281 59.109375 C 286.207031 58.953125 285.988281 58.855469 285.746094 58.855469 C 285.628906 58.855469 285.511719 58.878906 285.40625 58.925781 L 273.730469 64.761719 C 273.519531 64.847656 273.335938 64.976562 273.175781 65.136719 C 272.859375 65.457031 272.664062 65.890625 272.664062 66.367188 Z M 272.667969 111.992188 "/>
<path style=" stroke:none;fill-rule:nonzero;fill:rgb(100%,100%,100%);fill-opacity:1;" d="M 409.105469 66.625 C 409.105469 68.019531 408.339844 69.289062 407.097656 69.933594 C 404.21875 71.429688 400.039062 71.429688 397.160156 69.933594 C 395.925781 69.289062 395.152344 68.019531 395.152344 66.625 L 395.152344 63.285156 C 395.152344 61.890625 395.921875 60.617188 397.160156 59.976562 C 400.039062 58.472656 404.21875 58.472656 407.097656 59.976562 C 408.339844 60.617188 409.105469 61.890625 409.105469 63.285156 Z M 409.105469 66.625 "/>
<path style=" stroke:none;fill-rule:nonzero;fill:rgb(100%,100%,100%);fill-opacity:1;" d="M 367.242188 66.625 C 367.242188 68.019531 366.472656 69.289062 365.234375 69.933594 C 362.359375 71.429688 358.179688 71.429688 355.296875 69.933594 C 354.058594 69.289062 353.289062 68.019531 353.289062 66.625 L 353.289062 63.285156 C 353.289062 61.890625 354.058594 60.617188 355.296875 59.976562 C 358.179688 58.472656 362.359375 58.472656 365.234375 59.976562 C 366.472656 60.617188 367.242188 61.890625 367.242188 63.285156 Z M 367.242188 66.625 "/>
<path style=" stroke:none;fill-rule:nonzero;fill:rgb(100%,100%,100%);fill-opacity:1;" d="M 388.175781 131.042969 C 388.175781 131.523438 387.785156 131.914062 387.304688 131.914062 L 375.09375 131.914062 C 374.609375 131.914062 374.222656 131.523438 374.222656 131.042969 L 374.21875 66.382812 C 374.21875 65.898438 374.417969 65.464844 374.730469 65.148438 C 374.890625 64.992188 375.074219 64.863281 375.285156 64.773438 L 386.960938 58.9375 C 387.0625 58.894531 387.179688 58.871094 387.300781 58.871094 C 387.539062 58.871094 387.757812 58.96875 387.914062 59.125 C 388.074219 59.28125 388.171875 59.5 388.171875 59.742188 Z M 388.175781 131.042969 "/>
<path style=" stroke:none;fill-rule:nonzero;fill:rgb(100%,100%,100%);fill-opacity:1;" d="M 395.152344 82.058594 C 395.152344 81.582031 395.347656 81.140625 395.664062 80.828125 C 395.820312 80.667969 396.007812 80.542969 396.214844 80.453125 L 407.890625 74.617188 C 407.996094 74.574219 408.113281 74.546875 408.230469 74.546875 C 408.472656 74.546875 408.6875 74.644531 408.84375 74.800781 C 409.003906 74.960938 409.101562 75.179688 409.101562 75.421875 L 409.101562 131.042969 C 409.101562 131.523438 408.714844 131.914062 408.230469 131.914062 L 396.019531 131.914062 C 395.539062 131.914062 395.148438 131.523438 395.148438 131.042969 Z M 395.152344 82.058594 "/>
<path style=" stroke:none;fill-rule:nonzero;fill:rgb(100%,100%,100%);fill-opacity:1;" d="M 367.242188 82.058594 C 367.242188 81.582031 367.046875 81.140625 366.730469 80.828125 C 366.570312 80.667969 366.382812 80.542969 366.175781 80.453125 L 354.5 74.617188 C 354.394531 74.574219 354.28125 74.546875 354.160156 74.546875 C 353.921875 74.546875 353.703125 74.644531 353.542969 74.800781 C 353.386719 74.960938 353.289062 75.179688 353.289062 75.421875 L 353.289062 131.042969 C 353.289062 131.523438 353.679688 131.914062 354.160156 131.914062 L 366.371094 131.914062 C 366.855469 131.914062 367.242188 131.523438 367.242188 131.042969 Z M 367.242188 82.058594 "/>
<path style=" stroke:none;fill-rule:nonzero;fill:rgb(100%,100%,100%);fill-opacity:1;" d="M 79.640625 94.472656 C 79.640625 92.289062 80.796875 90.382812 82.734375 89.375 C 92.601562 84.226562 107.441406 83.679688 118.402344 87.6875 L 118.402344 131.042969 C 118.402344 131.523438 118.789062 131.914062 119.273438 131.914062 L 131.484375 131.914062 C 131.964844 131.914062 132.355469 131.523438 132.355469 131.042969 L 132.355469 87.6875 C 143.316406 83.679688 158.15625 84.226562 168.019531 89.375 C 169.960938 90.382812 171.113281 92.289062 171.113281 94.472656 L 171.113281 131.042969 C 171.113281 131.523438 171.5 131.914062 171.984375 131.914062 L 184.195312 131.914062 C 184.675781 131.914062 185.070312 131.523438 185.070312 131.042969 L 185.070312 94.472656 C 185.070312 87.101562 181.007812 80.40625 174.46875 77 C 160.355469 69.644531 140.332031 69.132812 125.378906 75.4375 C 110.417969 69.132812 90.394531 69.644531 76.285156 77 C 69.742188 80.40625 65.683594 87.101562 65.683594 94.472656 L 65.683594 131.042969 C 65.683594 131.523438 66.078125 131.914062 66.558594 131.914062 L 78.765625 131.914062 C 79.25 131.914062 79.636719 131.523438 79.636719 131.042969 Z M 79.640625 94.472656 "/>
<path style=" stroke:none;fill-rule:nonzero;fill:rgb(100%,100%,100%);fill-opacity:1;" d="M 416.082031 94.472656 C 416.082031 87.101562 420.144531 80.40625 426.683594 77 C 441.875 69.085938 463.933594 69.085938 479.128906 77 C 484.085938 79.578125 487.613281 84.050781 489.03125 89.277344 L 472.480469 89.277344 C 461.382812 83.601562 444.152344 83.628906 433.125 89.375 C 431.1875 90.382812 430.03125 92.289062 430.03125 94.472656 L 430.03125 96.253906 L 488.851562 96.253906 C 489.332031 96.253906 489.726562 96.644531 489.726562 97.125 L 489.726562 111.992188 C 489.726562 119.363281 485.660156 126.058594 479.121094 129.464844 C 463.929688 137.382812 441.871094 137.382812 426.683594 129.464844 C 421.722656 126.886719 418.191406 122.410156 416.773438 117.183594 L 433.320312 117.183594 C 444.414062 122.859375 461.652344 122.832031 472.671875 117.09375 C 474.613281 116.085938 475.765625 114.179688 475.765625 111.996094 L 475.765625 110.210938 L 416.953125 110.203125 C 416.46875 110.203125 416.082031 109.8125 416.082031 109.332031 Z M 416.082031 94.472656 "/>
<path style=" stroke:none;fill-rule:nonzero;fill:rgb(100%,100%,100%);fill-opacity:1;" d="M 418.613281 144.347656 C 418.613281 144.78125 418.96875 145 419.675781 145 C 420.144531 145 420.902344 144.769531 421.941406 144.3125 L 421.632812 145.753906 C 420.40625 146.019531 419.148438 146.625 417.855469 147.574219 C 417.957031 146.714844 418.359375 146.132812 419.054688 145.824219 C 418.699219 145.777344 418.347656 145.738281 417.992188 145.703125 C 417.605469 145.589844 417.410156 145.355469 417.410156 145 C 417.410156 144.382812 417.683594 143.769531 418.234375 143.164062 C 418.785156 142.558594 419.359375 142.253906 419.96875 142.253906 C 420.527344 142.253906 420.808594 142.386719 420.808594 142.648438 L 420.808594 143.488281 C 419.347656 143.363281 418.613281 143.652344 418.613281 144.347656 Z M 419.300781 156.417969 C 418.945312 154.105469 418.59375 151.796875 418.238281 149.484375 L 419.851562 147.527344 C 420.207031 149.714844 420.558594 151.898438 420.914062 154.082031 C 421.328125 156.714844 421.53125 158.914062 421.53125 160.675781 C 421.53125 161.097656 421.421875 161.550781 421.207031 162.03125 C 420.988281 162.453125 420.773438 162.878906 420.554688 163.300781 C 420.152344 161.480469 419.734375 159.1875 419.300781 156.417969 Z M 419.300781 156.417969 "/>
<path style=" stroke:none;fill-rule:nonzero;fill:rgb(100%,100%,100%);fill-opacity:1;" d="M 415.78125 154.871094 C 416.25 155.980469 416.484375 157.113281 416.484375 158.269531 C 416.484375 159.011719 416.34375 159.710938 416.070312 160.363281 L 407.898438 160.347656 C 407.667969 160.1875 407.554688 159.796875 407.554688 159.179688 C 407.554688 158.539062 407.667969 158.121094 407.898438 157.925781 L 415.003906 157.960938 C 414.992188 157.308594 414.738281 156.65625 414.246094 156.003906 C 413.628906 155.167969 413.261719 154.601562 413.148438 154.304688 L 414.65625 151.832031 C 414.78125 152.371094 415.152344 153.382812 415.78125 154.871094 Z M 411.9375 164.054688 L 410.425781 165.769531 L 408.3125 164.054688 L 409.824219 162.339844 Z M 415.972656 164.210938 L 414.464844 165.910156 L 412.355469 164.210938 L 413.863281 162.496094 Z M 415.972656 164.210938 "/>
<path style=" stroke:none;fill-rule:nonzero;fill:rgb(100%,100%,100%);fill-opacity:1;" d="M 407.613281 154.871094 C 408.082031 155.980469 408.316406 157.113281 408.316406 158.269531 C 408.316406 159.011719 408.179688 159.710938 407.90625 160.363281 L 399.734375 160.347656 C 399.507812 160.1875 399.394531 159.796875 399.394531 159.179688 C 399.394531 158.539062 399.507812 158.121094 399.734375 157.925781 L 406.84375 157.960938 C 406.832031 157.308594 406.578125 156.65625 406.085938 156.003906 C 405.46875 155.167969 405.101562 154.601562 404.988281 154.304688 L 406.5 151.832031 C 406.609375 152.371094 406.984375 153.382812 407.613281 154.871094 Z M 405.742188 145.980469 L 404.230469 147.695312 L 402.101562 145.980469 L 403.628906 144.265625 Z M 405.742188 145.980469 "/>
<path style=" stroke:none;fill-rule:nonzero;fill:rgb(100%,100%,100%);fill-opacity:1;" d="M 389.792969 159.179688 C 389.792969 158.367188 389.917969 157.949219 390.171875 157.925781 C 391.441406 157.800781 392.3125 157.632812 392.78125 157.429688 C 393.515625 157.097656 394.101562 156.453125 394.546875 155.488281 L 394.875 155.609375 C 395.710938 153.914062 396.480469 153.070312 397.191406 153.070312 C 398.015625 153.070312 398.730469 153.671875 399.339844 154.871094 C 399.867188 155.902344 400.128906 156.878906 400.128906 157.808594 C 400.128906 158.253906 399.988281 158.789062 399.714844 159.40625 C 399.488281 159.898438 399.253906 160.394531 399.011719 160.898438 C 398.152344 160.714844 397.257812 160.363281 396.332031 159.851562 C 395.289062 159.269531 394.570312 158.667969 394.167969 158.050781 C 393.757812 159.582031 392.414062 160.351562 390.136719 160.351562 C 389.910156 160.347656 389.792969 159.957031 389.792969 159.179688 Z M 398.636719 158.253906 C 398.636719 157.671875 398.402344 157.046875 397.929688 156.382812 C 397.425781 155.652344 396.902344 155.285156 396.351562 155.285156 C 395.960938 155.285156 395.59375 155.539062 395.25 156.042969 C 396.429688 157.171875 397.558594 157.910156 398.636719 158.253906 Z M 398.636719 158.253906 "/>
<path style=" stroke:none;fill-rule:nonzero;fill:rgb(100%,100%,100%);fill-opacity:1;" d="M 388.523438 160.347656 C 388.109375 158.425781 387.6875 156.179688 387.253906 153.617188 C 387.140625 152.941406 386.773438 150.683594 386.15625 146.835938 L 387.769531 144.878906 C 388.125 147.054688 388.476562 149.226562 388.832031 151.402344 C 389.253906 154.035156 389.464844 156.207031 389.464844 157.925781 L 391.199219 157.925781 L 391.199219 160.347656 Z M 388.523438 160.347656 "/>
<path style=" stroke:none;fill-rule:nonzero;fill:rgb(100%,100%,100%);fill-opacity:1;" d="M 369.320312 159.179688 C 369.320312 158.539062 369.453125 158.132812 369.714844 157.960938 L 377.820312 157.960938 C 377.511719 156.792969 375.664062 155.101562 372.273438 152.878906 L 372.136719 153.71875 C 371.632812 153.273438 371.128906 152.828125 370.625 152.378906 C 370.15625 151.886719 369.921875 151.308594 369.921875 150.644531 C 369.921875 149.28125 371.140625 147.859375 373.578125 146.371094 C 375.257812 145.339844 377.132812 144.472656 379.191406 143.761719 L 378.746094 146.285156 C 377.667969 146.523438 376.402344 147.011719 374.933594 147.742188 C 373.503906 148.441406 372.335938 149.144531 371.429688 149.851562 C 373.238281 150.90625 374.8125 152.046875 376.152344 153.285156 C 378.050781 155.035156 379 156.605469 379 157.988281 L 379 160.355469 L 369.710938 160.355469 C 369.453125 160.171875 369.320312 159.773438 369.320312 159.179688 Z M 369.320312 159.179688 "/>
<path style=" stroke:none;fill-rule:nonzero;fill:rgb(100%,100%,100%);fill-opacity:1;" d="M 369.371094 154.871094 C 369.839844 155.980469 370.074219 157.113281 370.074219 158.269531 C 370.074219 159.011719 369.9375 159.710938 369.664062 160.363281 L 361.492188 160.347656 C 361.265625 160.1875 361.152344 159.796875 361.152344 159.179688 C 361.152344 158.539062 361.265625 158.121094 361.492188 157.925781 L 368.601562 157.960938 C 368.589844 157.308594 368.335938 156.65625 367.84375 156.003906 C 367.226562 155.167969 366.859375 154.601562 366.746094 154.304688 L 368.257812 151.832031 C 368.371094 152.371094 368.742188 153.382812 369.371094 154.871094 Z M 367.503906 145.980469 L 365.992188 147.695312 L 363.863281 145.980469 L 365.390625 144.265625 Z M 367.503906 145.980469 "/>
<path style=" stroke:none;fill-rule:nonzero;fill:rgb(100%,100%,100%);fill-opacity:1;" d="M 361.203125 154.871094 C 361.671875 155.980469 361.90625 157.113281 361.90625 158.269531 C 361.90625 159.011719 361.769531 159.710938 361.492188 160.363281 L 353.320312 160.347656 C 353.09375 160.1875 352.976562 159.796875 352.976562 159.179688 C 352.976562 158.539062 353.089844 158.121094 353.320312 157.925781 L 360.429688 157.960938 C 360.417969 157.308594 360.167969 156.65625 359.675781 156.003906 C 359.058594 155.167969 358.691406 154.601562 358.578125 154.304688 L 360.089844 151.832031 C 360.199219 152.371094 360.570312 153.382812 361.203125 154.871094 Z M 357.511719 148.707031 L 356 150.421875 L 353.886719 148.707031 L 355.398438 146.992188 Z M 361.542969 148.863281 L 360.035156 150.5625 L 357.921875 148.863281 L 359.433594 147.148438 Z M 361.542969 148.863281 "/>
<path style=" stroke:none;fill-rule:nonzero;fill:rgb(100%,100%,100%);fill-opacity:1;" d="M 341.941406 159.660156 C 342.457031 159.15625 343.582031 158.511719 345.324219 157.71875 C 346.753906 157.078125 347.664062 156.332031 348.050781 155.488281 L 348.378906 155.609375 C 349.203125 153.914062 349.976562 153.070312 350.699219 153.070312 C 351.523438 153.070312 352.246094 153.671875 352.863281 154.871094 C 353.378906 155.902344 353.636719 156.878906 353.636719 157.808594 C 353.636719 158.21875 353.5 158.746094 353.226562 159.386719 C 352.984375 159.890625 352.75 160.394531 352.523438 160.898438 C 351.664062 160.703125 350.773438 160.355469 349.847656 159.851562 C 348.804688 159.28125 348.082031 158.679688 347.683594 158.050781 C 347.464844 158.875 346.785156 159.53125 345.640625 160.023438 C 344.65625 160.425781 343.671875 160.820312 342.6875 161.207031 C 341.691406 161.78125 341.195312 162.59375 341.195312 163.644531 C 341.195312 164.847656 341.8125 165.90625 343.050781 166.820312 C 344.046875 167.542969 345.222656 168.054688 346.585938 168.367188 L 346.15625 168.367188 C 342.242188 168.414062 340.285156 167.082031 340.285156 164.367188 C 340.277344 162.28125 340.832031 160.714844 341.941406 159.660156 Z M 352.136719 158.253906 C 352.136719 157.671875 351.902344 157.046875 351.433594 156.382812 C 350.929688 155.652344 350.40625 155.285156 349.855469 155.285156 C 349.46875 155.285156 349.101562 155.539062 348.757812 156.042969 C 349.933594 157.171875 351.0625 157.910156 352.136719 158.253906 Z M 352.136719 158.253906 "/>
<path style=" stroke:none;fill-rule:nonzero;fill:rgb(85.098039%,15.294118%,18.039216%);fill-opacity:1;" d="M 186.675781 57.777344 C 186.675781 58.113281 186.492188 58.421875 186.191406 58.578125 C 185.496094 58.941406 184.484375 58.941406 183.789062 58.578125 C 183.492188 58.421875 183.304688 58.117188 183.304688 57.777344 L 183.300781 56.96875 C 183.300781 56.632812 183.484375 56.324219 183.785156 56.167969 C 184.484375 55.804688 185.492188 55.804688 186.1875 56.167969 C 186.488281 56.324219 186.671875 56.628906 186.671875 56.96875 Z M 186.675781 57.777344 "/>
<path style=" stroke:none;fill-rule:nonzero;fill:rgb(85.098039%,15.294118%,18.039216%);fill-opacity:1;" d="M 173.085938 57.777344 C 173.085938 58.113281 172.898438 58.421875 172.601562 58.578125 C 171.90625 58.941406 170.894531 58.941406 170.199219 58.578125 C 169.898438 58.421875 169.714844 58.117188 169.714844 57.777344 L 169.710938 56.96875 C 169.710938 56.632812 169.898438 56.324219 170.195312 56.167969 C 170.894531 55.804688 171.902344 55.804688 172.597656 56.167969 C 172.898438 56.324219 173.082031 56.628906 173.082031 56.96875 Z M 173.085938 57.777344 "/>
<path style=" stroke:none;fill-rule:nonzero;fill:rgb(85.098039%,15.294118%,18.039216%);fill-opacity:1;" d="M 178.148438 57.777344 C 178.148438 58.113281 177.960938 58.421875 177.664062 58.578125 C 176.96875 58.941406 175.957031 58.941406 175.261719 58.578125 C 174.960938 58.421875 174.777344 58.117188 174.777344 57.777344 L 174.773438 56.96875 C 174.773438 56.632812 174.960938 56.324219 175.257812 56.167969 C 175.953125 55.804688 176.964844 55.804688 177.660156 56.167969 C 177.960938 56.324219 178.144531 56.628906 178.144531 56.96875 Z M 178.148438 57.777344 "/>
<path style=" stroke:none;fill-rule:nonzero;fill:rgb(85.098039%,15.294118%,18.039216%);fill-opacity:1;" d="M 150.964844 57.777344 C 150.964844 58.113281 150.78125 58.421875 150.480469 58.578125 C 149.785156 58.941406 148.773438 58.941406 148.078125 58.578125 C 147.777344 58.421875 147.59375 58.117188 147.59375 57.777344 L 147.59375 56.96875 C 147.59375 56.632812 147.78125 56.324219 148.078125 56.167969 C 148.777344 55.804688 149.785156 55.804688 150.480469 56.167969 C 150.78125 56.324219 150.964844 56.628906 150.964844 56.96875 Z M 150.964844 57.777344 "/>
<path style=" stroke:none;fill-rule:nonzero;fill:rgb(85.098039%,15.294118%,18.039216%);fill-opacity:1;" d="M 156.027344 57.777344 C 156.027344 58.113281 155.84375 58.421875 155.542969 58.578125 C 154.847656 58.941406 153.835938 58.941406 153.140625 58.578125 C 152.839844 58.421875 152.65625 58.117188 152.65625 57.777344 L 152.65625 56.96875 C 152.65625 56.632812 152.84375 56.324219 153.140625 56.167969 C 153.839844 55.804688 154.847656 55.804688 155.542969 56.167969 C 155.84375 56.324219 156.027344 56.628906 156.027344 56.96875 Z M 156.027344 57.777344 "/>
<path style=" stroke:none;fill-rule:nonzero;fill:rgb(85.098039%,15.294118%,18.039216%);fill-opacity:1;" d="M 207.863281 52.359375 C 209.644531 52.710938 211.644531 52.496094 213.152344 51.707031 C 213.4375 51.558594 213.683594 51.363281 213.890625 51.136719 C 217.558594 53 222.828125 52.984375 226.472656 51.089844 C 228.054688 50.265625 229.039062 48.648438 229.039062 46.863281 L 229.039062 42.625 C 229.039062 40.84375 228.054688 39.222656 226.472656 38.398438 C 223.058594 36.621094 218.21875 36.496094 214.601562 38.019531 L 214.601562 37.171875 C 214.601562 37.113281 214.578125 37.0625 214.539062 37.023438 C 214.5 36.984375 214.449219 36.960938 214.390625 36.960938 C 214.363281 36.960938 214.335938 36.96875 214.308594 36.976562 L 211.484375 38.386719 C 211.433594 38.40625 211.386719 38.4375 211.351562 38.476562 C 211.273438 38.554688 211.226562 38.65625 211.226562 38.773438 L 211.234375 48.445312 C 211.234375 48.605469 211.148438 48.746094 211.007812 48.820312 C 210.191406 49.246094 208.910156 49.246094 208.09375 48.820312 C 207.949219 48.746094 207.867188 48.605469 207.867188 48.445312 L 207.863281 42.617188 C 207.863281 40.835938 206.882812 39.214844 205.300781 38.390625 C 201.625 36.476562 196.292969 36.476562 192.621094 38.390625 C 191.039062 39.214844 190.058594 40.835938 190.058594 42.617188 L 190.058594 46.855469 C 190.058594 48.636719 191.039062 50.257812 192.621094 51.082031 C 196.03125 52.859375 200.875 52.984375 204.492188 51.457031 L 204.492188 53.183594 C 204.492188 53.710938 204.210938 54.171875 203.742188 54.417969 C 201.078125 55.804688 196.910156 55.8125 194.226562 54.441406 L 190.226562 54.441406 C 190.570312 55.707031 191.421875 56.789062 192.625 57.410156 C 196.296875 59.324219 201.632812 59.324219 205.304688 57.410156 C 206.886719 56.585938 207.871094 54.964844 207.871094 53.183594 Z M 204.484375 46.863281 C 204.484375 47.390625 204.207031 47.851562 203.738281 48.097656 C 201.058594 49.496094 196.855469 49.496094 194.175781 48.097656 C 193.707031 47.851562 193.425781 47.394531 193.425781 46.863281 L 193.425781 42.625 C 193.425781 42.097656 193.703125 41.636719 194.175781 41.390625 C 196.855469 39.992188 201.058594 39.992188 203.738281 41.390625 C 204.207031 41.632812 204.484375 42.09375 204.484375 42.625 Z M 225.664062 46.863281 C 225.664062 47.394531 225.386719 47.851562 224.914062 48.097656 C 222.234375 49.496094 218.03125 49.496094 215.347656 48.097656 C 214.878906 47.855469 214.601562 47.394531 214.601562 46.863281 L 214.601562 42.625 C 214.601562 42.097656 214.882812 41.636719 215.347656 41.390625 C 218.03125 39.992188 222.230469 39.992188 224.914062 41.390625 C 225.382812 41.632812 225.664062 42.09375 225.664062 42.625 Z M 225.664062 46.863281 "/>
<path style=" stroke:none;fill-rule:nonzero;fill:rgb(85.098039%,15.294118%,18.039216%);fill-opacity:1;" d="M 186.464844 37.679688 L 183.511719 37.679688 C 183.394531 37.679688 183.300781 37.773438 183.300781 37.890625 L 183.300781 47.5625 C 183.300781 47.929688 183.105469 48.25 182.78125 48.417969 C 180.917969 49.386719 178 49.386719 176.136719 48.417969 C 175.8125 48.25 175.617188 47.929688 175.617188 47.5625 L 175.613281 37.890625 C 175.613281 37.773438 175.519531 37.679688 175.402344 37.679688 L 172.449219 37.679688 C 172.332031 37.679688 172.238281 37.773438 172.238281 37.890625 L 172.242188 47.5625 C 172.242188 47.929688 172.046875 48.25 171.722656 48.417969 C 169.859375 49.386719 166.941406 49.386719 165.078125 48.417969 C 164.753906 48.25 164.558594 47.929688 164.558594 47.5625 L 164.542969 34.09375 C 164.542969 34.035156 164.519531 33.984375 164.480469 33.945312 C 164.441406 33.90625 164.390625 33.882812 164.332031 33.882812 C 164.304688 33.882812 164.273438 33.886719 164.25 33.898438 L 161.425781 35.308594 C 161.378906 35.328125 161.332031 35.359375 161.292969 35.398438 C 161.214844 35.476562 161.171875 35.582031 161.171875 35.695312 L 161.1875 47.558594 C 161.1875 47.925781 160.992188 48.246094 160.667969 48.414062 C 158.804688 49.382812 155.886719 49.382812 154.023438 48.414062 C 153.699219 48.246094 153.503906 47.925781 153.503906 47.558594 L 153.5 37.890625 C 153.5 37.773438 153.40625 37.679688 153.289062 37.679688 L 150.335938 37.679688 C 150.21875 37.679688 150.125 37.773438 150.125 37.890625 L 150.125 47.5625 C 150.125 47.929688 149.929688 48.25 149.605469 48.417969 C 147.742188 49.386719 144.824219 49.386719 142.960938 48.417969 C 142.675781 48.269531 142.488281 48.003906 142.449219 47.691406 L 142.441406 37.886719 C 142.441406 37.769531 142.347656 37.675781 142.230469 37.675781 L 139.273438 37.679688 C 139.160156 37.679688 139.0625 37.773438 139.0625 37.890625 L 139.0625 47.5625 C 139.0625 47.929688 138.867188 48.25 138.542969 48.417969 C 136.679688 49.386719 133.761719 49.386719 131.898438 48.417969 C 131.574219 48.25 131.378906 47.929688 131.378906 47.5625 L 131.375 37.890625 C 131.375 37.773438 131.28125 37.679688 131.164062 37.679688 L 128.210938 37.679688 C 128.097656 37.679688 128 37.773438 128 37.890625 L 128.007812 47.5625 C 128.007812 47.929688 127.8125 48.25 127.488281 48.417969 C 125.625 49.386719 122.707031 49.386719 120.84375 48.417969 C 120.519531 48.25 120.324219 47.929688 120.324219 47.5625 L 120.308594 37.890625 C 120.308594 37.773438 120.214844 37.679688 120.097656 37.679688 L 117.144531 37.679688 C 117.027344 37.679688 116.933594 37.773438 116.933594 37.890625 L 116.945312 53.1875 C 116.945312 53.714844 116.667969 54.175781 116.199219 54.421875 C 113.519531 55.820312 109.320312 55.820312 106.636719 54.421875 L 102.675781 54.421875 C 103.015625 55.695312 103.871094 56.785156 105.078125 57.414062 C 108.75 59.328125 114.082031 59.328125 117.757812 57.414062 C 119.339844 56.589844 120.320312 54.96875 120.320312 53.1875 L 120.324219 51.90625 C 123.167969 52.878906 126.734375 52.695312 129.308594 51.359375 C 129.445312 51.289062 129.570312 51.203125 129.695312 51.121094 C 129.820312 51.207031 129.953125 51.289062 130.089844 51.359375 C 133.066406 52.910156 137.386719 52.910156 140.367188 51.359375 C 140.503906 51.289062 140.632812 51.207031 140.757812 51.121094 C 140.882812 51.207031 141.011719 51.285156 141.148438 51.359375 C 144.125 52.910156 148.449219 52.910156 151.425781 51.359375 C 151.5625 51.289062 151.691406 51.207031 151.816406 51.121094 C 151.941406 51.207031 152.070312 51.285156 152.207031 51.359375 C 155.183594 52.910156 159.507812 52.910156 162.484375 51.359375 C 162.621094 51.289062 162.75 51.207031 162.875 51.121094 C 163 51.207031 163.128906 51.285156 163.265625 51.359375 C 166.242188 52.910156 170.566406 52.910156 173.542969 51.359375 C 173.679688 51.289062 173.804688 51.203125 173.929688 51.121094 C 174.054688 51.207031 174.1875 51.289062 174.324219 51.359375 C 177.300781 52.910156 181.625 52.910156 184.601562 51.359375 C 185.882812 50.691406 186.679688 49.378906 186.679688 47.933594 L 186.679688 37.890625 C 186.675781 37.777344 186.582031 37.679688 186.464844 37.679688 Z M 186.464844 37.679688 "/>
</g>
</svg>
